# MagicaVoxel @ Ephtracy

# group
o 

# material
mtllib PlayerHand2F.mtl
usemtl palette

# normals
vn -1 0 0
vn 1 0 0
vn 0 0 1
vn 0 0 -1
vn 0 -1 0
vn 0 1 0

# texcoords
vt 0.462891 0.5
vt 0.466797 0.5
vt 0.857422 0.5

# verts
v -0.7 0.9 0
v -0.7 0.9 -0.3
v -0.7 0.9 -0.4
v -0.7 1 0.2
v -0.7 1 0
v -0.7 1.2 0.2
v -0.7 1.2 -0.3
v -0.7 1.2 -0.4
v -0.6 0.9 0.2
v -0.6 0.9 0
v -0.6 1 0.3
v -0.6 1 0.2
v -0.6 1 0
v -0.6 1.2 0.3
v -0.6 1.2 0.2
v -0.5 0.9 0.3
v -0.5 0.9 0.2
v -0.5 1 0.3
v -0.5 1 0.2
v -0.5 1.1 1
v -0.5 1.1 0.3
v -0.5 1.2 1
v -0.5 1.2 0.3
v -0.4 0.9 0.4
v -0.4 0.9 0.3
v -0.4 0.9 -0.2
v -0.4 0.9 -0.3
v -0.4 0.9 -0.4
v -0.4 1 1
v -0.4 1 0.4
v -0.4 1.1 1
v -0.4 1.1 0.3
v -0.4 1.2 -0.2
v -0.4 1.2 -0.3
v -0.4 1.2 -0.4
v -0.3 0.9 0.5
v -0.3 0.9 0.4
v -0.3 1 0.5
v -0.3 1 0.4
v -0.1 0.9 -0.2
v -0.1 0.9 -0.3
v -0.1 0.9 -0.4
v -0.1 1.2 -0.2
v -0.1 1.2 -0.3
v -0.1 1.2 -0.4
v 0.2 0.9 -0.2
v 0.2 0.9 -0.4
v 0.2 1 -0.4
v 0.2 1 -0.7
v 0.2 1.1 -0.7
v 0.2 1.1 -0.9
v 0.2 1.2 -0.2
v 0.2 1.2 -0.7
v 0.2 1.3 -0.7
v 0.2 1.3 -0.9
v 0.6 1.1 0
v 0.6 1.1 -0.2
v 0.6 1.2 0
v 0.6 1.3 0
v 0.6 1.3 -0.2
v -0.5 0.9 -0.2
v -0.5 0.9 -0.3
v -0.5 0.9 -0.4
v -0.5 1.2 -0.2
v -0.5 1.2 -0.3
v -0.5 1.2 -0.4
v -0.2 0.9 -0.2
v -0.2 0.9 -0.3
v -0.2 0.9 -0.4
v -0.2 1.2 -0.2
v -0.2 1.2 -0.3
v -0.2 1.2 -0.4
v 0.1 0.9 0.5
v 0.1 0.9 0.4
v 0.1 0.9 -0.2
v 0.1 0.9 -0.3
v 0.1 0.9 -0.4
v 0.1 1 0.5
v 0.1 1 0.4
v 0.1 1.2 -0.2
v 0.1 1.2 -0.3
v 0.1 1.2 -0.4
v 0.2 0.9 0.4
v 0.2 0.9 0.3
v 0.2 1 1
v 0.2 1 0.4
v 0.2 1 0.3
v 0.2 1.1 1
v 0.2 1.1 0.4
v 0.3 1 0.4
v 0.3 1 0.3
v 0.3 1.1 1
v 0.3 1.1 0.4
v 0.3 1.2 1
v 0.3 1.2 0.3
v 0.4 0.9 0.1
v 0.4 0.9 -0.4
v 0.4 1 0.1
v 0.4 1 0
v 0.4 1 -0.4
v 0.4 1 -0.7
v 0.4 1.1 -0.7
v 0.4 1.1 -0.9
v 0.4 1.2 0
v 0.4 1.2 -0.7
v 0.4 1.3 -0.7
v 0.4 1.3 -0.9
v 0.6 0.9 0.3
v 0.6 0.9 0.1
v 0.6 1 0.3
v 0.6 1 0.1
v 0.7 1 0.3
v 0.7 1 0.2
v 0.7 1.2 0.3
v 0.7 1.2 0.2
v 0.8 1 0.2
v 0.8 1 0
v 0.8 1.1 0
v 0.8 1.1 -0.2
v 0.8 1.2 0.2
v 0.8 1.2 0
v 0.8 1.3 0
v 0.8 1.3 -0.2
v -0.5 1.1 1
v -0.5 1.2 1
v -0.4 1 1
v -0.4 1.1 1
v 0.2 1 1
v 0.2 1.1 1
v 0.3 1.1 1
v 0.3 1.2 1
v -0.3 0.9 0.5
v -0.3 1 0.5
v 0.1 0.9 0.5
v 0.1 1 0.5
v -0.4 0.9 0.4
v -0.4 1 0.4
v -0.3 0.9 0.4
v -0.3 1 0.4
v 0.1 0.9 0.4
v 0.1 1 0.4
v 0.2 0.9 0.4
v 0.2 1 0.4
v 0.2 1.1 0.4
v 0.3 1 0.4
v 0.3 1.1 0.4
v -0.6 1 0.3
v -0.6 1.2 0.3
v -0.5 0.9 0.3
v -0.5 1 0.3
v -0.5 1.1 0.3
v -0.5 1.2 0.3
v -0.4 0.9 0.3
v -0.4 1.1 0.3
v 0.2 0.9 0.3
v 0.2 1 0.3
v 0.3 1 0.3
v 0.3 1.2 0.3
v 0.6 0.9 0.3
v 0.6 1 0.3
v 0.7 1 0.3
v 0.7 1.2 0.3
v -0.7 1 0.2
v -0.7 1.2 0.2
v -0.6 0.9 0.2
v -0.6 1 0.2
v -0.6 1.2 0.2
v -0.5 0.9 0.2
v -0.5 1 0.2
v 0.7 1 0.2
v 0.7 1.2 0.2
v 0.8 1 0.2
v 0.8 1.2 0.2
v -0.7 0.9 0
v -0.7 1 0
v -0.6 0.9 0
v -0.6 1 0
v 0.6 1.2 0
v 0.6 1.3 0
v 0.8 1.2 0
v 0.8 1.3 0
v 0.2 1.2 -0.7
v 0.2 1.3 -0.7
v 0.4 1.2 -0.7
v 0.4 1.3 -0.7
v 0.4 0.9 0.1
v 0.4 1 0.1
v 0.6 0.9 0.1
v 0.6 1 0.1
v 0.4 1 0
v 0.4 1.2 0
v 0.6 1.1 0
v 0.6 1.2 0
v 0.8 1 0
v 0.8 1.1 0
v -0.5 0.9 -0.2
v -0.5 1.2 -0.2
v -0.4 0.9 -0.2
v -0.4 1.2 -0.2
v -0.2 0.9 -0.2
v -0.2 1.2 -0.2
v -0.1 0.9 -0.2
v -0.1 1.2 -0.2
v 0.1 0.9 -0.2
v 0.1 1.2 -0.2
v 0.2 0.9 -0.2
v 0.2 1.2 -0.2
v 0.6 1.1 -0.2
v 0.6 1.3 -0.2
v 0.8 1.1 -0.2
v 0.8 1.3 -0.2
v -0.7 0.9 -0.4
v -0.7 1.2 -0.4
v -0.5 0.9 -0.4
v -0.5 1.2 -0.4
v -0.4 0.9 -0.4
v -0.4 1.2 -0.4
v -0.2 0.9 -0.4
v -0.2 1.2 -0.4
v -0.1 0.9 -0.4
v -0.1 1.2 -0.4
v 0.1 0.9 -0.4
v 0.1 1.2 -0.4
v 0.2 0.9 -0.4
v 0.2 1 -0.4
v 0.4 0.9 -0.4
v 0.4 1 -0.4
v 0.2 1 -0.7
v 0.2 1.1 -0.7
v 0.4 1 -0.7
v 0.4 1.1 -0.7
v 0.2 1.1 -0.9
v 0.2 1.3 -0.9
v 0.4 1.1 -0.9
v 0.4 1.3 -0.9
v -0.3 0.9 0.5
v 0.1 0.9 0.5
v -0.4 0.9 0.4
v -0.3 0.9 0.4
v 0.1 0.9 0.4
v 0.2 0.9 0.4
v -0.5 0.9 0.3
v -0.4 0.9 0.3
v 0.2 0.9 0.3
v 0.6 0.9 0.3
v -0.6 0.9 0.2
v -0.5 0.9 0.2
v 0.4 0.9 0.1
v 0.6 0.9 0.1
v -0.7 0.9 0
v -0.6 0.9 0
v -0.5 0.9 -0.2
v -0.4 0.9 -0.2
v -0.2 0.9 -0.2
v -0.1 0.9 -0.2
v 0.1 0.9 -0.2
v 0.2 0.9 -0.2
v -0.7 0.9 -0.3
v -0.5 0.9 -0.3
v -0.4 0.9 -0.3
v -0.2 0.9 -0.3
v -0.1 0.9 -0.3
v 0.1 0.9 -0.3
v -0.7 0.9 -0.4
v -0.5 0.9 -0.4
v -0.4 0.9 -0.4
v -0.2 0.9 -0.4
v -0.1 0.9 -0.4
v 0.1 0.9 -0.4
v 0.2 0.9 -0.4
v 0.4 0.9 -0.4
v -0.4 1 1
v 0.2 1 1
v -0.3 1 0.5
v 0.1 1 0.5
v -0.4 1 0.4
v -0.3 1 0.4
v 0.1 1 0.4
v 0.2 1 0.4
v 0.3 1 0.4
v -0.6 1 0.3
v -0.5 1 0.3
v 0.2 1 0.3
v 0.3 1 0.3
v 0.6 1 0.3
v 0.7 1 0.3
v -0.7 1 0.2
v -0.6 1 0.2
v -0.5 1 0.2
v 0.7 1 0.2
v 0.8 1 0.2
v 0.4 1 0.1
v 0.6 1 0.1
v -0.7 1 0
v -0.6 1 0
v 0.4 1 0
v 0.8 1 0
v 0.2 1 -0.4
v 0.4 1 -0.4
v 0.2 1 -0.7
v 0.4 1 -0.7
v -0.5 1.1 1
v -0.4 1.1 1
v 0.2 1.1 1
v 0.3 1.1 1
v 0.2 1.1 0.4
v 0.3 1.1 0.4
v -0.5 1.1 0.3
v -0.4 1.1 0.3
v 0.6 1.1 0
v 0.8 1.1 0
v 0.6 1.1 -0.2
v 0.8 1.1 -0.2
v 0.2 1.1 -0.7
v 0.4 1.1 -0.7
v 0.2 1.1 -0.9
v 0.4 1.1 -0.9
v -0.5 1.2 1
v 0.3 1.2 1
v -0.6 1.2 0.3
v -0.5 1.2 0.3
v 0.3 1.2 0.3
v 0.7 1.2 0.3
v -0.7 1.2 0.2
v -0.6 1.2 0.2
v 0.7 1.2 0.2
v 0.8 1.2 0.2
v 0.4 1.2 0
v 0.6 1.2 0
v 0.8 1.2 0
v -0.5 1.2 -0.2
v -0.4 1.2 -0.2
v -0.2 1.2 -0.2
v -0.1 1.2 -0.2
v 0.1 1.2 -0.2
v 0.2 1.2 -0.2
v -0.7 1.2 -0.3
v -0.5 1.2 -0.3
v -0.4 1.2 -0.3
v -0.2 1.2 -0.3
v -0.1 1.2 -0.3
v 0.1 1.2 -0.3
v -0.7 1.2 -0.4
v -0.5 1.2 -0.4
v -0.4 1.2 -0.4
v -0.2 1.2 -0.4
v -0.1 1.2 -0.4
v 0.1 1.2 -0.4
v 0.2 1.2 -0.7
v 0.4 1.2 -0.7
v 0.6 1.3 0
v 0.8 1.3 0
v 0.6 1.3 -0.2
v 0.8 1.3 -0.2
v 0.2 1.3 -0.7
v 0.4 1.3 -0.7
v 0.2 1.3 -0.9
v 0.4 1.3 -0.9

# faces
f 5/2/1 2/2/1 1/2/1
f 6/2/1 5/2/1 4/2/1
f 7/1/1 3/1/1 2/1/1
f 7/2/1 5/2/1 6/2/1
f 7/2/1 2/2/1 5/2/1
f 8/1/1 3/1/1 7/1/1
f 12/2/1 10/2/1 9/2/1
f 13/2/1 10/2/1 12/2/1
f 14/2/1 12/2/1 11/2/1
f 15/2/1 12/2/1 14/2/1
f 18/2/1 17/2/1 16/2/1
f 19/2/1 17/2/1 18/2/1
f 22/2/1 21/2/1 20/2/1
f 23/2/1 21/2/1 22/2/1
f 30/2/1 25/2/1 24/2/1
f 31/2/1 30/2/1 29/2/1
f 32/2/1 25/2/1 30/2/1
f 32/2/1 30/2/1 31/2/1
f 33/2/1 27/2/1 26/2/1
f 34/1/1 28/1/1 27/1/1
f 34/2/1 27/2/1 33/2/1
f 35/1/1 28/1/1 34/1/1
f 38/2/1 37/2/1 36/2/1
f 39/2/1 37/2/1 38/2/1
f 43/2/1 41/2/1 40/2/1
f 44/3/1 42/3/1 41/3/1
f 44/2/1 41/2/1 43/2/1
f 45/3/1 42/3/1 44/3/1
f 48/2/1 47/2/1 46/2/1
f 50/2/1 49/2/1 48/2/1
f 52/2/1 48/2/1 46/2/1
f 52/2/1 51/2/1 50/2/1
f 52/2/1 50/2/1 48/2/1
f 53/2/1 51/2/1 52/2/1
f 54/2/1 51/2/1 53/2/1
f 55/2/1 51/2/1 54/2/1
f 58/2/1 57/2/1 56/2/1
f 59/2/1 57/2/1 58/2/1
f 60/2/1 57/2/1 59/2/1
f 61/2/2 62/2/2 64/2/2
f 62/1/2 63/1/2 65/1/2
f 64/2/2 62/2/2 65/2/2
f 65/1/2 63/1/2 66/1/2
f 67/2/2 68/2/2 70/2/2
f 68/1/2 69/1/2 71/1/2
f 70/2/2 68/2/2 71/2/2
f 71/1/2 69/1/2 72/1/2
f 73/2/2 74/2/2 78/2/2
f 78/2/2 74/2/2 79/2/2
f 75/2/2 76/2/2 80/2/2
f 76/3/2 77/3/2 81/3/2
f 80/2/2 76/2/2 81/2/2
f 81/3/2 77/3/2 82/3/2
f 83/2/2 84/2/2 86/2/2
f 86/2/2 84/2/2 87/2/2
f 85/2/2 86/2/2 88/2/2
f 88/2/2 86/2/2 89/2/2
f 90/2/2 91/2/2 93/2/2
f 92/2/2 93/2/2 94/2/2
f 93/2/2 91/2/2 95/2/2
f 94/2/2 93/2/2 95/2/2
f 96/2/2 97/2/2 98/2/2
f 98/2/2 97/2/2 99/2/2
f 99/2/2 97/2/2 100/2/2
f 100/2/2 101/2/2 102/2/2
f 99/2/2 100/2/2 102/2/2
f 99/2/2 102/2/2 104/2/2
f 102/2/2 103/2/2 104/2/2
f 104/2/2 103/2/2 105/2/2
f 105/2/2 103/2/2 106/2/2
f 106/2/2 103/2/2 107/2/2
f 108/2/2 109/2/2 110/2/2
f 110/2/2 109/2/2 111/2/2
f 112/2/2 113/2/2 114/2/2
f 114/2/2 113/2/2 115/2/2
f 116/2/2 117/2/2 118/2/2
f 116/2/2 118/2/2 120/2/2
f 118/2/2 119/2/2 120/2/2
f 120/2/2 119/2/2 121/2/2
f 121/2/2 119/2/2 122/2/2
f 122/2/2 119/2/2 123/2/2
f 127/2/3 125/2/3 124/2/3
f 128/2/3 127/2/3 126/2/3
f 129/2/3 125/2/3 127/2/3
f 129/2/3 127/2/3 128/2/3
f 130/2/3 125/2/3 129/2/3
f 131/2/3 125/2/3 130/2/3
f 134/2/3 133/2/3 132/2/3
f 135/2/3 133/2/3 134/2/3
f 138/2/3 137/2/3 136/2/3
f 139/2/3 137/2/3 138/2/3
f 142/2/3 141/2/3 140/2/3
f 143/2/3 141/2/3 142/2/3
f 145/2/3 144/2/3 143/2/3
f 146/2/3 144/2/3 145/2/3
f 150/2/3 148/2/3 147/2/3
f 151/2/3 148/2/3 150/2/3
f 152/2/3 148/2/3 151/2/3
f 153/2/3 150/2/3 149/2/3
f 153/2/3 151/2/3 150/2/3
f 154/2/3 151/2/3 153/2/3
f 157/2/3 156/2/3 155/2/3
f 159/2/3 157/2/3 155/2/3
f 159/2/3 158/2/3 157/2/3
f 160/2/3 158/2/3 159/2/3
f 161/2/3 158/2/3 160/2/3
f 162/2/3 158/2/3 161/2/3
f 166/2/3 164/2/3 163/2/3
f 167/2/3 164/2/3 166/2/3
f 168/2/3 166/2/3 165/2/3
f 169/2/3 166/2/3 168/2/3
f 172/2/3 171/2/3 170/2/3
f 173/2/3 171/2/3 172/2/3
f 176/2/3 175/2/3 174/2/3
f 177/2/3 175/2/3 176/2/3
f 180/2/3 179/2/3 178/2/3
f 181/2/3 179/2/3 180/2/3
f 184/2/3 183/2/3 182/2/3
f 185/2/3 183/2/3 184/2/3
f 186/2/4 187/2/4 188/2/4
f 188/2/4 187/2/4 189/2/4
f 190/2/4 191/2/4 192/2/4
f 192/2/4 191/2/4 193/2/4
f 190/2/4 192/2/4 194/2/4
f 194/2/4 192/2/4 195/2/4
f 196/2/4 197/2/4 198/2/4
f 198/2/4 197/2/4 199/2/4
f 200/2/4 201/2/4 202/2/4
f 202/2/4 201/2/4 203/2/4
f 204/2/4 205/2/4 206/2/4
f 206/2/4 205/2/4 207/2/4
f 208/2/4 209/2/4 210/2/4
f 210/2/4 209/2/4 211/2/4
f 212/1/4 213/1/4 214/1/4
f 214/1/4 213/1/4 215/1/4
f 216/1/4 217/1/4 218/1/4
f 218/1/4 217/1/4 219/1/4
f 220/3/4 221/3/4 222/3/4
f 222/3/4 221/3/4 223/3/4
f 224/2/4 225/2/4 226/2/4
f 226/2/4 225/2/4 227/2/4
f 228/2/4 229/2/4 230/2/4
f 230/2/4 229/2/4 231/2/4
f 232/2/4 233/2/4 234/2/4
f 234/2/4 233/2/4 235/2/4
f 239/2/5 237/2/5 236/2/5
f 240/2/5 237/2/5 239/2/5
f 243/2/5 239/2/5 238/2/5
f 243/2/5 241/2/5 240/2/5
f 243/2/5 240/2/5 239/2/5
f 244/2/5 241/2/5 243/2/5
f 247/2/5 243/2/5 242/2/5
f 247/2/5 245/2/5 244/2/5
f 247/2/5 244/2/5 243/2/5
f 248/2/5 245/2/5 247/2/5
f 248/2/5 247/2/5 246/2/5
f 249/2/5 245/2/5 248/2/5
f 251/2/5 248/2/5 246/2/5
f 252/2/5 248/2/5 251/2/5
f 252/2/5 251/2/5 250/2/5
f 253/2/5 248/2/5 252/2/5
f 254/2/5 248/2/5 253/2/5
f 255/2/5 248/2/5 254/2/5
f 256/2/5 248/2/5 255/2/5
f 257/2/5 248/2/5 256/2/5
f 258/2/5 252/2/5 250/2/5
f 259/2/5 252/2/5 258/2/5
f 260/2/5 254/2/5 253/2/5
f 261/2/5 254/2/5 260/2/5
f 262/2/5 256/2/5 255/2/5
f 263/2/5 256/2/5 262/2/5
f 264/1/5 259/1/5 258/1/5
f 265/1/5 259/1/5 264/1/5
f 266/1/5 261/1/5 260/1/5
f 267/1/5 261/1/5 266/1/5
f 268/3/5 263/3/5 262/3/5
f 269/3/5 263/3/5 268/3/5
f 270/2/5 248/2/5 257/2/5
f 271/2/5 248/2/5 270/2/5
f 274/2/5 273/2/5 272/2/5
f 275/2/5 273/2/5 274/2/5
f 276/2/5 274/2/5 272/2/5
f 277/2/5 274/2/5 276/2/5
f 278/2/5 273/2/5 275/2/5
f 279/2/5 273/2/5 278/2/5
f 283/2/5 280/2/5 279/2/5
f 284/2/5 280/2/5 283/2/5
f 288/2/5 282/2/5 281/2/5
f 289/2/5 282/2/5 288/2/5
f 290/2/5 286/2/5 285/2/5
f 293/2/5 291/2/5 290/2/5
f 293/2/5 290/2/5 285/2/5
f 294/2/5 288/2/5 287/2/5
f 295/2/5 288/2/5 294/2/5
f 296/2/5 293/2/5 292/2/5
f 297/2/5 291/2/5 293/2/5
f 297/2/5 293/2/5 296/2/5
f 300/2/5 299/2/5 298/2/5
f 301/2/5 299/2/5 300/2/5
f 306/2/5 305/2/5 304/2/5
f 307/2/5 305/2/5 306/2/5
f 308/2/5 303/2/5 302/2/5
f 309/2/5 303/2/5 308/2/5
f 312/2/5 311/2/5 310/2/5
f 313/2/5 311/2/5 312/2/5
f 316/2/5 315/2/5 314/2/5
f 317/2/5 315/2/5 316/2/5
f 318/2/6 319/2/6 321/2/6
f 321/2/6 319/2/6 322/2/6
f 320/2/6 321/2/6 325/2/6
f 322/2/6 323/2/6 325/2/6
f 321/2/6 322/2/6 325/2/6
f 325/2/6 323/2/6 326/2/6
f 324/2/6 325/2/6 328/2/6
f 326/2/6 327/2/6 328/2/6
f 325/2/6 326/2/6 328/2/6
f 328/2/6 327/2/6 329/2/6
f 329/2/6 327/2/6 330/2/6
f 324/2/6 328/2/6 331/2/6
f 331/2/6 328/2/6 332/2/6
f 332/2/6 328/2/6 333/2/6
f 333/2/6 328/2/6 334/2/6
f 334/2/6 328/2/6 335/2/6
f 335/2/6 328/2/6 336/2/6
f 324/2/6 331/2/6 337/2/6
f 337/2/6 331/2/6 338/2/6
f 332/2/6 333/2/6 339/2/6
f 339/2/6 333/2/6 340/2/6
f 334/2/6 335/2/6 341/2/6
f 341/2/6 335/2/6 342/2/6
f 337/1/6 338/1/6 343/1/6
f 343/1/6 338/1/6 344/1/6
f 339/1/6 340/1/6 345/1/6
f 345/1/6 340/1/6 346/1/6
f 341/3/6 342/3/6 347/3/6
f 347/3/6 342/3/6 348/3/6
f 336/2/6 328/2/6 349/2/6
f 349/2/6 328/2/6 350/2/6
f 351/2/6 352/2/6 353/2/6
f 353/2/6 352/2/6 354/2/6
f 355/2/6 356/2/6 357/2/6
f 357/2/6 356/2/6 358/2/6
