# MagicaVoxel @ Ephtracy

# group
o 

# material
mtllib PlayerHand0F.mtl
usemtl palette

# normals
vn -1 0 0
vn 1 0 0
vn 0 0 1
vn 0 0 -1
vn 0 -1 0
vn 0 1 0

# texcoords
vt 0.462891 0.5
vt 0.466797 0.5
vt 0.857422 0.5

# verts
v -0.7 0.9 0
v -0.7 0.9 -0.3
v -0.7 0.9 -0.4
v -0.7 1 0.2
v -0.7 1 0
v -0.7 1.2 0.2
v -0.7 1.2 -0.3
v -0.7 1.2 -0.4
v -0.6 0.9 0.2
v -0.6 0.9 0
v -0.6 1 0.3
v -0.6 1 0.2
v -0.6 1 0
v -0.6 1.2 0.3
v -0.6 1.2 0.2
v -0.5 0.9 0.3
v -0.5 0.9 0.2
v -0.5 1 0.3
v -0.5 1 0.2
v -0.5 1.1 1
v -0.5 1.1 0.3
v -0.5 1.2 1
v -0.5 1.2 0.3
v -0.4 0.9 0.4
v -0.4 0.9 0.3
v -0.4 0.9 -0.2
v -0.4 0.9 -0.3
v -0.4 0.9 -0.4
v -0.4 1 1
v -0.4 1 0.4
v -0.4 1.1 1
v -0.4 1.1 0.3
v -0.4 1.2 -0.2
v -0.4 1.2 -0.3
v -0.4 1.2 -0.4
v -0.3 0.9 0.5
v -0.3 0.9 0.4
v -0.3 1 0.5
v -0.3 1 0.4
v -0.1 0.9 -0.2
v -0.1 0.9 -0.3
v -0.1 0.9 -0.4
v -0.1 1.2 -0.2
v -0.1 1.2 -0.3
v -0.1 1.2 -0.4
v 0.2 0.9 -0.2
v 0.2 0.9 -0.3
v 0.2 0.9 -0.4
v 0.2 1.2 -0.2
v 0.2 1.2 -0.3
v 0.2 1.2 -0.4
v -0.5 0.9 -0.2
v -0.5 0.9 -0.3
v -0.5 0.9 -0.4
v -0.5 1.2 -0.2
v -0.5 1.2 -0.3
v -0.5 1.2 -0.4
v -0.2 0.9 -0.2
v -0.2 0.9 -0.3
v -0.2 0.9 -0.4
v -0.2 1.2 -0.2
v -0.2 1.2 -0.3
v -0.2 1.2 -0.4
v 0.1 0.9 0.5
v 0.1 0.9 0.4
v 0.1 0.9 -0.2
v 0.1 0.9 -0.3
v 0.1 0.9 -0.4
v 0.1 1 0.5
v 0.1 1 0.4
v 0.1 1.2 -0.2
v 0.1 1.2 -0.3
v 0.1 1.2 -0.4
v 0.2 0.9 0.4
v 0.2 0.9 0.3
v 0.2 1 1
v 0.2 1 0.4
v 0.2 1 0.3
v 0.2 1.1 1
v 0.2 1.1 0.4
v 0.3 1 0.4
v 0.3 1 0.3
v 0.3 1.1 1
v 0.3 1.1 0.4
v 0.3 1.2 1
v 0.3 1.2 0.3
v 0.4 0.9 0.1
v 0.4 0.9 -0.3
v 0.4 0.9 -0.4
v 0.4 1 0.1
v 0.4 1 0
v 0.4 1.2 0
v 0.4 1.2 -0.3
v 0.4 1.2 -0.4
v 0.5 0.9 0.3
v 0.5 0.9 0.1
v 0.5 1 0.1
v 0.5 1 0
v 0.5 1.2 0.3
v 0.5 1.2 0
v -0.5 1.1 1
v -0.5 1.2 1
v -0.4 1 1
v -0.4 1.1 1
v 0.2 1 1
v 0.2 1.1 1
v 0.3 1.1 1
v 0.3 1.2 1
v -0.3 0.9 0.5
v -0.3 1 0.5
v 0.1 0.9 0.5
v 0.1 1 0.5
v -0.4 0.9 0.4
v -0.4 1 0.4
v -0.3 0.9 0.4
v -0.3 1 0.4
v 0.1 0.9 0.4
v 0.1 1 0.4
v 0.2 0.9 0.4
v 0.2 1 0.4
v 0.2 1.1 0.4
v 0.3 1 0.4
v 0.3 1.1 0.4
v -0.6 1 0.3
v -0.6 1.2 0.3
v -0.5 0.9 0.3
v -0.5 1 0.3
v -0.5 1.1 0.3
v -0.5 1.2 0.3
v -0.4 0.9 0.3
v -0.4 1.1 0.3
v 0.2 0.9 0.3
v 0.2 1 0.3
v 0.3 1 0.3
v 0.3 1.2 0.3
v 0.4 0.9 0.3
v 0.4 1.2 0.3
v 0.5 0.9 0.3
v 0.5 1.2 0.3
v -0.7 1 0.2
v -0.7 1.2 0.2
v -0.6 0.9 0.2
v -0.6 1 0.2
v -0.6 1.2 0.2
v -0.5 0.9 0.2
v -0.5 1 0.2
v -0.7 0.9 0
v -0.7 1 0
v -0.6 0.9 0
v -0.6 1 0
v 0.4 0.9 0.1
v 0.4 1 0.1
v 0.5 0.9 0.1
v 0.5 1 0.1
v 0.4 1 0
v 0.4 1.2 0
v 0.5 1 0
v 0.5 1.2 0
v -0.5 0.9 -0.2
v -0.5 1.2 -0.2
v -0.4 0.9 -0.2
v -0.4 1.2 -0.2
v -0.2 0.9 -0.2
v -0.2 1.2 -0.2
v -0.1 0.9 -0.2
v -0.1 1.2 -0.2
v 0.1 0.9 -0.2
v 0.1 1.2 -0.2
v 0.2 0.9 -0.2
v 0.2 1.2 -0.2
v -0.7 0.9 -0.4
v -0.7 1.2 -0.4
v -0.5 0.9 -0.4
v -0.5 1.2 -0.4
v -0.4 0.9 -0.4
v -0.4 1.2 -0.4
v -0.2 0.9 -0.4
v -0.2 1.2 -0.4
v -0.1 0.9 -0.4
v -0.1 1.2 -0.4
v 0.1 0.9 -0.4
v 0.1 1.2 -0.4
v 0.2 0.9 -0.4
v 0.2 1.2 -0.4
v 0.4 0.9 -0.4
v 0.4 1.2 -0.4
v -0.3 0.9 0.5
v 0.1 0.9 0.5
v -0.4 0.9 0.4
v -0.3 0.9 0.4
v 0.1 0.9 0.4
v 0.2 0.9 0.4
v -0.5 0.9 0.3
v -0.4 0.9 0.3
v 0.2 0.9 0.3
v 0.4 0.9 0.3
v 0.5 0.9 0.3
v -0.6 0.9 0.2
v -0.5 0.9 0.2
v 0.4 0.9 0.1
v 0.5 0.9 0.1
v -0.7 0.9 0
v -0.6 0.9 0
v -0.5 0.9 -0.2
v -0.4 0.9 -0.2
v -0.2 0.9 -0.2
v -0.1 0.9 -0.2
v 0.1 0.9 -0.2
v 0.2 0.9 -0.2
v -0.7 0.9 -0.3
v -0.5 0.9 -0.3
v -0.4 0.9 -0.3
v -0.2 0.9 -0.3
v -0.1 0.9 -0.3
v 0.1 0.9 -0.3
v 0.2 0.9 -0.3
v 0.4 0.9 -0.3
v -0.7 0.9 -0.4
v -0.5 0.9 -0.4
v -0.4 0.9 -0.4
v -0.2 0.9 -0.4
v -0.1 0.9 -0.4
v 0.1 0.9 -0.4
v 0.2 0.9 -0.4
v 0.4 0.9 -0.4
v -0.4 1 1
v 0.2 1 1
v -0.3 1 0.5
v 0.1 1 0.5
v -0.4 1 0.4
v -0.3 1 0.4
v 0.1 1 0.4
v 0.2 1 0.4
v 0.3 1 0.4
v -0.6 1 0.3
v -0.5 1 0.3
v 0.2 1 0.3
v 0.3 1 0.3
v -0.7 1 0.2
v -0.6 1 0.2
v -0.5 1 0.2
v 0.4 1 0.1
v 0.5 1 0.1
v -0.7 1 0
v -0.6 1 0
v 0.4 1 0
v 0.5 1 0
v -0.5 1.1 1
v -0.4 1.1 1
v 0.2 1.1 1
v 0.3 1.1 1
v 0.2 1.1 0.4
v 0.3 1.1 0.4
v -0.5 1.1 0.3
v -0.4 1.1 0.3
v -0.5 1.2 1
v 0.3 1.2 1
v -0.6 1.2 0.3
v -0.5 1.2 0.3
v 0.3 1.2 0.3
v 0.4 1.2 0.3
v 0.5 1.2 0.3
v -0.7 1.2 0.2
v -0.6 1.2 0.2
v 0.4 1.2 0
v 0.5 1.2 0
v -0.5 1.2 -0.2
v -0.4 1.2 -0.2
v -0.2 1.2 -0.2
v -0.1 1.2 -0.2
v 0.1 1.2 -0.2
v 0.2 1.2 -0.2
v -0.7 1.2 -0.3
v -0.5 1.2 -0.3
v -0.4 1.2 -0.3
v -0.2 1.2 -0.3
v -0.1 1.2 -0.3
v 0.1 1.2 -0.3
v 0.2 1.2 -0.3
v 0.4 1.2 -0.3
v -0.7 1.2 -0.4
v -0.5 1.2 -0.4
v -0.4 1.2 -0.4
v -0.2 1.2 -0.4
v -0.1 1.2 -0.4
v 0.1 1.2 -0.4
v 0.2 1.2 -0.4
v 0.4 1.2 -0.4

# faces
f 5/2/1 2/2/1 1/2/1
f 6/2/1 5/2/1 4/2/1
f 7/1/1 3/1/1 2/1/1
f 7/2/1 5/2/1 6/2/1
f 7/2/1 2/2/1 5/2/1
f 8/1/1 3/1/1 7/1/1
f 12/2/1 10/2/1 9/2/1
f 13/2/1 10/2/1 12/2/1
f 14/2/1 12/2/1 11/2/1
f 15/2/1 12/2/1 14/2/1
f 18/2/1 17/2/1 16/2/1
f 19/2/1 17/2/1 18/2/1
f 22/2/1 21/2/1 20/2/1
f 23/2/1 21/2/1 22/2/1
f 30/2/1 25/2/1 24/2/1
f 31/2/1 30/2/1 29/2/1
f 32/2/1 25/2/1 30/2/1
f 32/2/1 30/2/1 31/2/1
f 33/2/1 27/2/1 26/2/1
f 34/1/1 28/1/1 27/1/1
f 34/2/1 27/2/1 33/2/1
f 35/1/1 28/1/1 34/1/1
f 38/2/1 37/2/1 36/2/1
f 39/2/1 37/2/1 38/2/1
f 43/2/1 41/2/1 40/2/1
f 44/3/1 42/3/1 41/3/1
f 44/2/1 41/2/1 43/2/1
f 45/3/1 42/3/1 44/3/1
f 49/2/1 47/2/1 46/2/1
f 50/3/1 48/3/1 47/3/1
f 50/2/1 47/2/1 49/2/1
f 51/3/1 48/3/1 50/3/1
f 52/2/2 53/2/2 55/2/2
f 53/1/2 54/1/2 56/1/2
f 55/2/2 53/2/2 56/2/2
f 56/1/2 54/1/2 57/1/2
f 58/2/2 59/2/2 61/2/2
f 59/1/2 60/1/2 62/1/2
f 61/2/2 59/2/2 62/2/2
f 62/1/2 60/1/2 63/1/2
f 64/2/2 65/2/2 69/2/2
f 69/2/2 65/2/2 70/2/2
f 66/2/2 67/2/2 71/2/2
f 67/3/2 68/3/2 72/3/2
f 71/2/2 67/2/2 72/2/2
f 72/3/2 68/3/2 73/3/2
f 74/2/2 75/2/2 77/2/2
f 77/2/2 75/2/2 78/2/2
f 76/2/2 77/2/2 79/2/2
f 79/2/2 77/2/2 80/2/2
f 81/2/2 82/2/2 84/2/2
f 83/2/2 84/2/2 85/2/2
f 84/2/2 82/2/2 86/2/2
f 85/2/2 84/2/2 86/2/2
f 87/2/2 88/2/2 90/2/2
f 90/2/2 88/2/2 91/2/2
f 91/2/2 88/2/2 92/2/2
f 88/3/2 89/3/2 93/3/2
f 92/2/2 88/2/2 93/2/2
f 93/3/2 89/3/2 94/3/2
f 95/3/2 96/3/2 97/3/2
f 95/3/2 97/3/2 99/3/2
f 97/3/2 98/3/2 99/3/2
f 99/3/2 98/3/2 100/3/2
f 104/2/3 102/2/3 101/2/3
f 105/2/3 104/2/3 103/2/3
f 106/2/3 102/2/3 104/2/3
f 106/2/3 104/2/3 105/2/3
f 107/2/3 102/2/3 106/2/3
f 108/2/3 102/2/3 107/2/3
f 111/2/3 110/2/3 109/2/3
f 112/2/3 110/2/3 111/2/3
f 115/2/3 114/2/3 113/2/3
f 116/2/3 114/2/3 115/2/3
f 119/2/3 118/2/3 117/2/3
f 120/2/3 118/2/3 119/2/3
f 122/2/3 121/2/3 120/2/3
f 123/2/3 121/2/3 122/2/3
f 127/2/3 125/2/3 124/2/3
f 128/2/3 125/2/3 127/2/3
f 129/2/3 125/2/3 128/2/3
f 130/2/3 127/2/3 126/2/3
f 130/2/3 128/2/3 127/2/3
f 131/2/3 128/2/3 130/2/3
f 134/2/3 133/2/3 132/2/3
f 136/2/3 134/2/3 132/2/3
f 136/2/3 135/2/3 134/2/3
f 137/2/3 135/2/3 136/2/3
f 138/3/3 137/3/3 136/3/3
f 139/3/3 137/3/3 138/3/3
f 143/2/3 141/2/3 140/2/3
f 144/2/3 141/2/3 143/2/3
f 145/2/3 143/2/3 142/2/3
f 146/2/3 143/2/3 145/2/3
f 149/2/3 148/2/3 147/2/3
f 150/2/3 148/2/3 149/2/3
f 151/3/4 152/3/4 153/3/4
f 153/3/4 152/3/4 154/3/4
f 155/3/4 156/3/4 157/3/4
f 157/3/4 156/3/4 158/3/4
f 159/2/4 160/2/4 161/2/4
f 161/2/4 160/2/4 162/2/4
f 163/2/4 164/2/4 165/2/4
f 165/2/4 164/2/4 166/2/4
f 167/2/4 168/2/4 169/2/4
f 169/2/4 168/2/4 170/2/4
f 171/1/4 172/1/4 173/1/4
f 173/1/4 172/1/4 174/1/4
f 175/1/4 176/1/4 177/1/4
f 177/1/4 176/1/4 178/1/4
f 179/3/4 180/3/4 181/3/4
f 181/3/4 180/3/4 182/3/4
f 183/3/4 184/3/4 185/3/4
f 185/3/4 184/3/4 186/3/4
f 190/2/5 188/2/5 187/2/5
f 191/2/5 188/2/5 190/2/5
f 194/2/5 190/2/5 189/2/5
f 194/2/5 192/2/5 191/2/5
f 194/2/5 191/2/5 190/2/5
f 195/2/5 192/2/5 194/2/5
f 199/2/5 194/2/5 193/2/5
f 199/2/5 195/2/5 194/2/5
f 199/2/5 196/2/5 195/2/5
f 200/3/5 197/3/5 196/3/5
f 200/2/5 199/2/5 198/2/5
f 200/2/5 196/2/5 199/2/5
f 201/3/5 197/3/5 200/3/5
f 203/2/5 200/2/5 198/2/5
f 204/2/5 200/2/5 203/2/5
f 204/2/5 203/2/5 202/2/5
f 205/2/5 200/2/5 204/2/5
f 206/2/5 200/2/5 205/2/5
f 207/2/5 200/2/5 206/2/5
f 208/2/5 200/2/5 207/2/5
f 209/2/5 200/2/5 208/2/5
f 210/2/5 204/2/5 202/2/5
f 211/2/5 204/2/5 210/2/5
f 212/2/5 206/2/5 205/2/5
f 213/2/5 206/2/5 212/2/5
f 214/2/5 208/2/5 207/2/5
f 215/2/5 208/2/5 214/2/5
f 216/2/5 200/2/5 209/2/5
f 217/2/5 200/2/5 216/2/5
f 218/1/5 211/1/5 210/1/5
f 219/1/5 211/1/5 218/1/5
f 220/1/5 213/1/5 212/1/5
f 221/1/5 213/1/5 220/1/5
f 222/3/5 215/3/5 214/3/5
f 223/3/5 215/3/5 222/3/5
f 224/3/5 217/3/5 216/3/5
f 225/3/5 217/3/5 224/3/5
f 228/2/5 227/2/5 226/2/5
f 229/2/5 227/2/5 228/2/5
f 230/2/5 228/2/5 226/2/5
f 231/2/5 228/2/5 230/2/5
f 232/2/5 227/2/5 229/2/5
f 233/2/5 227/2/5 232/2/5
f 237/2/5 234/2/5 233/2/5
f 238/2/5 234/2/5 237/2/5
f 240/2/5 236/2/5 235/2/5
f 241/2/5 236/2/5 240/2/5
f 244/2/5 240/2/5 239/2/5
f 245/2/5 240/2/5 244/2/5
f 246/3/5 243/3/5 242/3/5
f 247/3/5 243/3/5 246/3/5
f 252/2/5 251/2/5 250/2/5
f 253/2/5 251/2/5 252/2/5
f 254/2/5 249/2/5 248/2/5
f 255/2/5 249/2/5 254/2/5
f 256/2/6 257/2/6 259/2/6
f 259/2/6 257/2/6 260/2/6
f 258/2/6 259/2/6 264/2/6
f 259/2/6 260/2/6 264/2/6
f 260/2/6 261/2/6 264/2/6
f 261/3/6 262/3/6 265/3/6
f 263/2/6 264/2/6 265/2/6
f 264/2/6 261/2/6 265/2/6
f 265/3/6 262/3/6 266/3/6
f 263/2/6 265/2/6 267/2/6
f 267/2/6 265/2/6 268/2/6
f 268/2/6 265/2/6 269/2/6
f 269/2/6 265/2/6 270/2/6
f 270/2/6 265/2/6 271/2/6
f 271/2/6 265/2/6 272/2/6
f 263/2/6 267/2/6 273/2/6
f 273/2/6 267/2/6 274/2/6
f 268/2/6 269/2/6 275/2/6
f 275/2/6 269/2/6 276/2/6
f 270/2/6 271/2/6 277/2/6
f 277/2/6 271/2/6 278/2/6
f 272/2/6 265/2/6 279/2/6
f 279/2/6 265/2/6 280/2/6
f 273/1/6 274/1/6 281/1/6
f 281/1/6 274/1/6 282/1/6
f 275/1/6 276/1/6 283/1/6
f 283/1/6 276/1/6 284/1/6
f 277/3/6 278/3/6 285/3/6
f 285/3/6 278/3/6 286/3/6
f 279/3/6 280/3/6 287/3/6
f 287/3/6 280/3/6 288/3/6
